{"title":"TomorrowNeverDies(1997)MPEG-4[DaScubaDude]","uid":14888799,"size":1309163302,"categoryP":"video","categoryS":"movies","magnet":"?xt=urn:btih:92085b7520b9e0a8115e05dd31f5a81fd388262a&amp;dn=TomorrowNeverDies%281997%29MPEG-4%5BDaScubaDude%5D&amp;tr=udp%3A%2F%2Ftracker.leechers-paradise.org%3A6969&amp;tr=udp%3A%2F%2Fzer0day.ch%3A1337&amp;tr=udp%3A%2F%2Fopen.demonii.com%3A1337&amp;tr=udp%3A%2F%2Ftracker.coppersurfer.tk%3A6969&amp;tr=udp%3A%2F%2Fexodus.desync.com%3A6969","seeders":0,"leechers":0,"uploader":"dascuba","files":1,"time":1465753664,"description":"Tomorrow Never Dies (1997)\r\nPG-13 | 1h 59min | Action, Adventure, Thriller | 19 December 1997 (USA)\r\nJames Bond heads to stop a media mogul's plan to induce war between China and the UK in order to obtain exclusive global media coverage.\r\nDirector: Roger Spottiswoode\r\nWriter: Bruce Feirstein\r\nStars: Pierce Brosnan, Jonathan Pryce, Michelle Yeoh |\r\n\r\nGeneral\r\nComplete name                            : TomorrorNeverDiesTOMORROW_NEVER_DIES_Title11.mp4\r\nFormat                                   : MPEG-4\r\nFormat profile                           : Base Media\r\nCodec ID                                 : isom (isom/iso2/avc1/mp41)\r\nFile size                                : 1.22 GiB\r\nDuration                                 : 1h 59mn\r\nOverall bit rate                         : 1 464 Kbps\r\nMovie name                               : TOMORROW_NEVER_DIES\r\nGenre                                    : Action\r\nWriting application                      : Lavf54.6.100\r\n\r\nVideo\r\nID                                       : 1\r\nFormat                                   : AVC\r\nFormat/Info                              : Advanced Video Codec\r\nFormat profile                           :   \r\nFormat settings, CABAC                   : No\r\nFormat settings, ReFrames                : 6 frames\r\nFormat settings, GOP                     : M=1, N=60\r\nCodec ID                                 : avc1\r\nCodec ID/Info                            : Advanced Video Coding\r\nDuration                                 : 1h 59mn\r\nBit rate                                 : 1 194 Kbps\r\nWidth                                    : 720 pixels\r\nHeight                                   : 404 pixels\r\nDisplay aspect ratio                     : 16:9\r\nFrame rate mode                          : Constant\r\nFrame rate                               : 29.970 (30000/1001) fps\r\nColor space                              : YUV\r\nChroma subsampling                       : 4:2:0\r\nBit depth                                : 8 bits\r\nScan type                                : Progressive\r\nBits/(Pixel*Frame)                       : 0.137\r\nStream size                              : 1 018 MiB (82%)\r\n\r\nAudio\r\nID                                       : 2\r\nFormat                                   : AAC\r\nFormat/Info                              : Advanced Audio Codec\r\nFormat profile                           : LC\r\nCodec ID                                 : 40\r\nDuration                                 : 1h 59mn\r\nBit rate mode                            : Constant\r\nBit rate                                 : 265 Kbps\r\nChannel(s)                               : 2 channels\r\nChannel(s)_Original                      : 6 channels\r\nChannel positions                        : Front: L C R, Side: L R, LFE\r\nSampling rate                            : 44.1 KHz\r\nFrame rate                               : 43.066 fps (1024 spf)\r\nCompression mode                         : Lossy\r\nStream size                              : 225 MiB (18%)\r\nDefault                                  : Yes\r\nAlternate group                          : 1","torrent":{"xt":"urn:btih:92085b7520b9e0a8115e05dd31f5a81fd388262a","amp;dn":"TomorrowNeverDies%281997%29MPEG-4%5BDaScubaDude%5D","amp;tr":["udp%3A%2F%2Ftracker.leechers-paradise.org%3A6969","udp%3A%2F%2Fzer0day.ch%3A1337","udp%3A%2F%2Fopen.demonii.com%3A1337","udp%3A%2F%2Ftracker.coppersurfer.tk%3A6969","udp%3A%2F%2Fexodus.desync.com%3A6969"],"infoHash":"92085b7520b9e0a8115e05dd31f5a81fd388262a","infoHashBuffer":{"type":"Buffer","data":[146,8,91,117,32,185,224,168,17,94,5,221,49,245,168,31,211,136,38,42]},"announce":[],"urlList":[]}}